<?xml version="1.0" standalone="no"?>
<!DOCTYPE svg PUBLIC "-//W3C//DTD SVG 20010904//EN"
 "http://www.w3.org/TR/2001/REC-SVG-20010904/DTD/svg10.dtd">
<svg version="1.0" xmlns="http://www.w3.org/2000/svg"
 width="2048.000000pt" height="2048.000000pt" viewBox="0 0 2048.000000 2048.000000"
 preserveAspectRatio="xMidYMid meet">

<g transform="translate(0.000000,2048.000000) scale(0.100000,-0.100000)"
fill="#000000" stroke="none">
<path d="M9825 17499 c-1017 -60 -2028 -333 -2970 -799 -743 -369 -1345 -800
-1925 -1380 -282 -281 -489 -521 -721 -830 -376 -504 -720 -1106 -924 -1620
-268 -676 -424 -1353 -487 -2110 -20 -235 -16 -925 6 -1165 117 -1284 503
-2402 1179 -3420 151 -226 416 -567 608 -780 143 -159 546 -560 689 -685 333
-292 803 -624 1155 -815 39 -20 99 -55 135 -75 36 -21 160 -85 275 -142 963
-478 1879 -727 2930 -798 205 -13 962 -5 1155 14 449 43 735 92 1155 197 372
93 663 188 1005 326 285 115 486 210 770 364 375 203 665 391 993 644 489 376
879 761 1273 1255 368 462 667 942 906 1455 299 643 501 1376 608 2205 59 466
65 1164 14 1640 -112 1039 -430 1996 -956 2877 -294 494 -600 895 -998 1312
-235 245 -311 318 -537 514 -204 178 -323 271 -543 427 -267 189 -575 379
-835 515 -71 38 -134 71 -140 75 -36 25 -412 195 -598 269 -673 268 -1324 431
-2009 501 -362 37 -877 49 -1213 29z m880 -349 c401 -27 776 -82 1163 -171
176 -41 192 -45 227 -59 11 -4 72 -22 135 -39 219 -59 508 -164 880 -319 129
-53 597 -284 610 -301 3 -3 22 -14 43 -23 38 -18 200 -114 292 -173 321 -207
422 -279 720 -514 355 -280 756 -677 1047 -1036 116 -145 396 -525 436 -595
14 -25 65 -106 112 -180 48 -74 105 -169 128 -210 97 -179 155 -289 184 -350
17 -36 48 -103 70 -150 143 -306 312 -785 389 -1105 99 -407 158 -761 190
-1150 20 -243 15 -870 -9 -1165 -26 -303 -39 -404 -93 -695 -155 -836 -417
-1552 -802 -2190 -201 -333 -322 -508 -598 -865 -228 -295 -756 -824 -1039
-1040 -25 -19 -83 -66 -130 -105 -144 -118 -462 -337 -695 -478 -670 -404
-1509 -728 -2300 -887 -969 -194 -1941 -186 -2932 25 -252 54 -714 187 -873
252 -14 6 -59 22 -100 36 -77 26 -150 55 -370 147 -123 51 -632 300 -740 361
-240 137 -404 240 -585 368 -55 39 -123 86 -151 106 -28 19 -82 61 -120 92
-38 32 -92 76 -119 98 -140 111 -349 299 -514 460 -168 165 -426 450 -500 552
-17 23 -55 71 -84 106 -91 106 -224 291 -365 507 -442 673 -727 1359 -926
2233 -45 196 -116 672 -138 927 -17 194 -17 1051 0 1215 7 66 17 167 23 225
25 247 115 699 206 1025 170 615 478 1283 843 1835 62 93 261 368 352 485 210
271 317 391 589 665 269 271 383 370 704 611 288 217 369 271 710 477 119 72
489 265 605 315 19 8 82 36 140 62 183 83 530 213 765 286 210 66 249 77 476
134 378 96 762 159 1150 189 210 16 786 20 994 6z"/>
<path d="M9965 16835 c-16 -2 -113 -9 -215 -15 -524 -32 -1092 -146 -1642
-330 -743 -248 -1400 -585 -1988 -1019 -462 -341 -859 -730 -1311 -1286 -128
-158 -250 -333 -425 -610 -244 -384 -473 -868 -614 -1293 -167 -507 -253 -924
-296 -1442 -24 -296 -25 -976 -1 -1230 44 -458 97 -764 212 -1205 39 -154 39
-154 48 -175 4 -8 30 -85 58 -170 62 -186 132 -376 163 -445 13 -27 45 -99 71
-160 48 -110 59 -132 200 -395 79 -147 226 -386 343 -560 55 -81 197 -275 212
-290 3 -3 25 -32 50 -65 171 -230 603 -691 845 -901 44 -38 82 -71 85 -74 20
-22 138 -118 200 -163 41 -31 82 -61 91 -69 9 -7 23 -17 32 -23 8 -5 84 -59
169 -120 376 -270 749 -474 1288 -705 351 -151 782 -291 1165 -380 327 -76
608 -121 970 -156 228 -22 876 -26 1095 -6 852 76 1621 276 2333 606 42 20 79
36 82 36 12 0 497 257 574 304 237 146 281 174 389 250 192 135 343 247 408
300 33 28 105 87 160 131 109 89 572 543 674 662 147 172 200 238 353 442 258
345 401 572 587 936 161 315 242 506 353 835 297 878 406 1887 311 2880 -51
535 -184 1097 -384 1620 -221 578 -605 1238 -989 1700 -426 512 -830 907
-1227 1197 -398 292 -644 442 -1116 681 -211 107 -280 137 -588 258 -586 230
-1212 375 -1856 430 -162 13 -796 27 -869 19z m-2337 -1282 c-10 -2 -26 -2
-35 0 -10 3 -2 5 17 5 19 0 27 -2 18 -5z m5792 -366 c243 -55 443 -167 610
-343 136 -143 215 -286 267 -483 l25 -96 -1 -4165 c-2 -4528 2 -4261 -57
-4435 -137 -409 -452 -714 -869 -841 -184 -57 -28 -54 -3143 -54 -1979 0
-2903 3 -2969 11 -199 22 -437 110 -608 224 -286 191 -477 494 -530 845 -13
82 -15 656 -15 4205 1 2503 4 4138 10 4182 46 352 284 678 615 841 172 85 269
110 465 122 74 4 1483 6 3130 5 2759 -1 3001 -3 3070 -18z m1267 -2019 c-3 -8
-6 -5 -6 6 -1 11 2 17 5 13 3 -3 4 -12 1 -19z m-9610 -1873 c63 -32 127 -100
159 -169 l24 -52 -7 -517 -6 -517 -360 -2 -359 -3 1 -135 c1 -74 4 -137 7
-140 3 -3 166 -7 362 -10 l357 -5 -1 -65 c0 -40 -7 -77 -17 -97 -27 -50 -85
-103 -144 -130 -51 -24 -65 -25 -298 -30 -262 -6 -319 1 -385 42 -51 32 -103
93 -136 161 l-29 59 -3 605 c-3 642 2 767 38 842 24 51 84 114 150 159 l43 29
277 0 c276 0 276 0 327 -25z m10714 -1532 c112 -53 203 -152 233 -254 12 -39
15 -214 17 -971 l2 -923 -22 -60 c-57 -159 -181 -256 -347 -272 -151 -14 -317
75 -384 206 -47 93 -47 88 -44 1075 4 1065 -2 996 92 1097 92 100 190 142 318
136 54 -3 87 -11 135 -34z m-1104 -2875 c-2 -18 -4 -6 -4 27 0 33 2 48 4 33 2
-15 2 -42 0 -60z m0 -60 c-3 -8 -6 -5 -6 6 -1 11 2 17 5 13 3 -3 4 -12 1 -19z
m0 -150 c-3 -7 -5 -2 -5 12 0 14 2 19 5 13 2 -7 2 -19 0 -25z"/>
<path d="M7068 14549 c-52 -12 -132 -63 -172 -111 -71 -83 -66 257 -66 -4086
0 -2983 3 -3917 12 -3943 6 -19 17 -40 24 -46 10 -10 698 -13 3373 -13 l3360
0 16 30 c14 27 16 434 16 3977 0 2172 -3 3962 -7 3978 -19 79 -80 153 -164
196 l-45 24 -3155 2 c-1773 0 -3171 -3 -3192 -8z m2944 -611 c2 -112 2 -206 0
-210 -2 -5 -149 -8 -327 -8 l-324 0 -12 -42 c-11 -42 -7 -175 6 -210 4 -9 16
-19 28 -22 12 -3 175 -6 362 -7 187 -1 324 -4 305 -8 l-35 -6 0 -360 -1 -360
-326 -3 c-281 -2 -328 -4 -339 -18 -16 -19 -24 -167 -12 -214 l9 -35 380 -5
c338 -4 382 -7 412 -23 37 -20 43 -32 8 -15 -38 17 -53 6 -48 -36 2 -20 9 -36
14 -36 6 0 8 11 6 25 -5 25 14 36 27 15 3 -5 2 -10 -4 -10 -6 0 -8 -6 -5 -14
3 -8 -2 -17 -14 -20 -16 -6 -18 -14 -15 -71 l4 -65 -33 -1 c-18 0 -190 -1
-383 -2 l-350 -2 0 -132 c0 -72 4 -135 8 -140 5 -4 176 -10 380 -13 205 -3
368 -7 362 -9 -5 -2 -27 -2 -49 -1 l-38 2 3 -186 c3 -115 8 -186 14 -186 6 0
3 -4 -5 -10 -8 -5 -217 -9 -497 -9 l-483 0 -5 22 c-4 18 -1 1735 4 2450 l1
177 485 0 484 0 3 -202z m1743 194 c6 -4 10 -84 10 -202 l0 -195 40 -6 c22 -3
-129 -7 -335 -8 -206 -1 -380 -5 -387 -9 -21 -13 -33 -62 -33 -132 0 -78 10
-114 37 -125 10 -5 162 -9 338 -11 176 -1 354 -3 395 -4 l75 -2 -55 -11 c-30
-7 -57 -9 -58 -4 -2 4 -8 5 -13 1 -5 -3 -9 -156 -9 -360 l0 -354 43 -2 c23 -1
-137 -5 -355 -8 -218 -3 -400 -8 -404 -13 -11 -10 -18 -178 -10 -222 l7 -35
423 0 c233 0 438 -3 455 -6 35 -7 40 -19 11 -27 -18 -5 -20 -14 -20 -90 0 -66
4 -89 16 -102 9 -9 13 -19 9 -23 -4 -4 -203 -6 -443 -4 -263 2 -443 -1 -451
-7 -11 -7 -13 -34 -9 -136 3 -69 9 -129 13 -133 4 -4 166 -8 361 -10 l354 -3
0 -183 c0 -128 4 -186 12 -194 9 -9 -36 -12 -202 -14 -590 -4 -830 -3 -830 7
-3 395 2 2620 6 2626 6 11 994 12 1009 1z m-1688 -8 c-3 -3 -12 -4 -19 -1 -8
3 -5 6 6 6 11 1 17 -2 13 -5z m-1736 -741 c2 -670 1 -617 13 -625 7 -4 5 -16
-3 -32 l-14 -25 -388 -3 c-302 -2 -391 -6 -401 -16 -9 -9 -13 -47 -13 -130 l0
-117 492 -5 c270 -3 495 -8 499 -12 4 -5 -9 -8 -29 -8 -26 0 -37 -4 -37 -15 0
-8 7 -15 15 -15 12 0 14 -9 10 -40 -4 -36 -3 -40 18 -40 21 -1 21 -1 3 -12
-15 -9 -22 -7 -33 8 -12 16 -13 14 -13 -19 0 -26 4 -37 15 -37 8 0 15 5 15 11
0 5 5 7 11 3 8 -5 8 -9 -1 -14 -7 -4 -10 -12 -6 -18 4 -6 -2 -8 -14 -5 -15 4
-20 0 -20 -16 l0 -21 -466 0 -466 0 3 -130 c3 -88 8 -133 17 -142 10 -10 105
-14 420 -18 224 -3 402 -7 396 -8 -7 -1 -11 -62 -12 -178 -2 -97 -5 -181 -9
-187 -3 -6 -1 -7 5 -3 6 3 13 2 17 -4 4 -6 -6 -10 -22 -11 -15 0 -277 -3 -580
-5 l-553 -5 0 1221 0 1220 565 0 565 0 1 -547z m1742 340 c-7 -2 -19 -2 -25 0
-7 3 -2 5 12 5 14 0 19 -2 13 -5z m3215 -288 c3 -187 0 -211 -26 -218 -14 -4
-14 -5 3 -6 20 -1 20 -8 20 -769 0 -422 -2 -807 -3 -857 l-2 -90 -393 0 -392
0 -3 1058 -2 1057 397 -2 398 -3 3 -170z m-3161 133 c-3 -7 -5 -2 -5 12 0 14
2 19 5 13 2 -7 2 -19 0 -25z m-1450 -720 c-2 -24 -4 -7 -4 37 0 44 2 63 4 43
2 -21 2 -57 0 -80z m0 -170 c-2 -24 -4 -5 -4 42 0 47 2 66 4 43 2 -24 2 -62 0
-85z m1410 26 c-3 -3 -12 -4 -19 -1 -8 3 -5 6 6 6 11 1 17 -2 13 -5z m-1514
-291 c-7 -2 -21 -2 -30 0 -10 3 -4 5 12 5 17 0 24 -2 18 -5z m-26 -85 c-3 -8
-6 -5 -6 6 -1 11 2 17 5 13 3 -3 4 -12 1 -19z m130 -175 c-2 -38 -3 -7 -3 67
0 74 1 105 3 68 2 -38 2 -98 0 -135z m3440 35 c-2 -18 -4 -4 -4 32 0 36 2 50
4 33 2 -18 2 -48 0 -65z m-1967 67 c0 -8 -4 -15 -10 -15 -5 0 -7 7 -4 15 4 8
8 15 10 15 2 0 4 -7 4 -15z m-1640 -71 c0 -2 -9 -4 -21 -4 -11 0 -18 4 -14 10
5 8 35 3 35 -6z m3607 -86 c-2 -13 -4 -5 -4 17 -1 22 1 32 4 23 2 -10 2 -28 0
-40z m-320 -224 c-3 -3 -12 -4 -19 -1 -8 3 -5 6 6 6 11 1 17 -2 13 -5z m56 -1
c-7 -2 -21 -2 -30 0 -10 3 -4 5 12 5 17 0 24 -2 18 -5z m-3176 -305 c-2 -29
-3 -8 -3 47 0 55 1 79 3 53 2 -26 2 -71 0 -100z m3440 10 c-3 -8 -6 -5 -6 6
-1 11 2 17 5 13 3 -3 4 -12 1 -19z m-280 -74 c-3 -3 -12 -4 -19 -1 -8 3 -5 6
6 6 11 1 17 -2 13 -5z m1035 -301 l417 -6 -2 -196 -2 -196 -3042 -3 c-2479 -2
-3043 0 -3044 10 -4 98 -5 376 -2 386 4 10 536 12 2632 12 1444 0 2814 -3
3043 -7z m-4762 -2088 l0 -1295 -454 0 c-354 0 -455 3 -458 13 -3 6 -3 172 -2
367 2 195 4 772 4 1283 l0 927 455 0 455 0 0 -1295z m5175 550 l0 -180 -60 -6
-60 -6 56 -1 56 -2 6 -810 c3 -446 4 -817 0 -825 -4 -13 -63 -15 -399 -15
l-394 0 0 1016 0 1015 398 -3 397 -3 0 -180z m-1570 -100 c138 -48 239 -171
266 -324 27 -153 -69 -326 -204 -366 -42 -12 -127 -15 -474 -15 -384 0 -423 2
-423 16 0 14 -2 15 -17 3 -13 -12 -181 -14 -981 -17 l-965 -3 -53 33 c-109 66
-158 160 -158 303 0 101 17 151 80 236 35 48 111 105 174 130 45 17 632 25
1840 22 790 -1 869 -3 915 -18z m60 -1028 c183 -86 259 -307 170 -492 -30 -61
-113 -147 -169 -173 -92 -43 -90 -43 -1501 -40 l-1350 3 -55 32 c-65 38 -145
114 -170 163 -49 96 -54 235 -11 332 25 59 92 133 146 161 86 44 72 44 1510
43 l1370 -1 60 -28z m1508 -1017 c4 0 7 -160 7 -355 l0 -355 -3045 0 -3045 0
0 138 c0 75 -3 233 -6 350 -3 116 -3 215 -1 220 4 5 5860 7 6090 2z"/>
<path d="M8452 12345 c0 -16 2 -22 5 -12 2 9 2 23 0 30 -3 6 -5 -1 -5 -18z"/>
<path d="M12808 13213 c7 -3 16 -2 19 1 4 3 -2 6 -13 5 -11 0 -14 -3 -6 -6z"/>
<path d="M12808 12143 c6 -2 18 -2 25 0 6 3 1 5 -13 5 -14 0 -19 -2 -12 -5z"/>
<path d="M12852 11693 c37 -2 100 -2 140 0 40 1 10 3 -67 3 -77 0 -110 -1 -73
-3z"/>
<path d="M10844 8231 c11 -4 23 -16 27 -27 6 -16 8 -14 8 9 1 23 -3 27 -26 26
-23 0 -25 -2 -9 -8z"/>
<path d="M10872 7995 c0 -16 2 -22 5 -12 2 9 2 23 0 30 -3 6 -5 -1 -5 -18z"/>
<path d="M8812 7944 c10 -10 20 -16 22 -13 3 3 -5 11 -17 18 -21 13 -21 12 -5
-5z"/>
<path d="M10128 6155 c-169 -43 -332 -169 -398 -309 -150 -318 22 -691 360
-781 175 -47 415 14 539 136 192 189 231 447 105 680 -37 67 -167 189 -235
221 -132 62 -262 81 -371 53z m179 -311 c106 -36 178 -116 189 -210 17 -142
-87 -259 -242 -272 -52 -4 -71 0 -120 22 -71 33 -120 85 -139 150 -19 62 -19
93 0 145 30 85 92 145 173 167 63 17 83 17 139 -2z"/>
<path d="M15587 9306 c-49 -18 -64 -32 -88 -77 -43 -85 -11 -186 73 -227 43
-22 52 -23 102 -12 74 15 114 54 136 131 17 58 -23 149 -79 178 -32 18 -105
21 -144 7z"/>
<path d="M4276 6447 c3 -10 9 -15 12 -12 3 3 0 11 -7 18 -10 9 -11 8 -5 -6z"/>
<path d="M5770 4786 c0 -2 8 -10 18 -17 15 -13 16 -12 3 4 -13 16 -21 21 -21
13z"/>
<path d="M5825 4740 c10 -11 20 -20 23 -20 3 0 -3 9 -13 20 -10 11 -20 20 -23
20 -3 0 3 -9 13 -20z"/>
<path d="M5880 4696 c0 -2 8 -10 18 -17 15 -13 16 -12 3 4 -13 16 -21 21 -21
13z"/>
<path d="M7137 4179 c7 -7 15 -10 18 -7 3 3 -2 9 -12 12 -14 6 -15 5 -6 -5z"/>
</g>
</svg>
